# xmcd
#
# Track frame offsets: 
#        182
#        14085
#        27782
#        41962
#        54222
#        67472
#        80580
#        93605
#        106230
#        117997
#        130017
#        142695
#        155357
#        168167
#        181435
#        193887
#        206902
#        220575
#
# Disc length: 3102 seconds
#
# Revision: 6
# Processed by: cddbd v1.5.2PL0 Copyright (c) Steve Scherf et al.
# Submitted via: ExactAudioCopyFreeDBPlugin 1.0
#
DISCID=040c1c12
DTITLE=Broonzy, Big Bill - Whiskey And Good Time Blue - The Blues Coll
DTITLE=ection 27
DYEAR=1995
DGENRE=Blues
TTITLE0=She caught the train
TTITLE1=The dozen
TTITLE2=Don't tear my clothes
TTITLE3=Ash Hauler
TTITLE4=Out with the wrong woman
TTITLE5=Down in the alley
TTITLE6=Stuff they call money
TTITLE7=Good boy
TTITLE8=Unemployment stomp
TTITLE9=Rider rider blues
TTITLE10=Whiskey and good time blues
TTITLE11=Make my getaway
TTITLE12=Looking for my baby
TTITLE13=My mellow man
TTITLE14=Knockin' myself out
TTITLE15=Key to the highway
TTITLE16=Wee wee blues
TTITLE17=Conversation with the blues
EXTD=
EXTT0=
EXTT1=
EXTT2=
EXTT3=
EXTT4=
EXTT5=
EXTT6=
EXTT7=
EXTT8=
EXTT9=
EXTT10=
EXTT11=
EXTT12=
EXTT13=
EXTT14=
EXTT15=
EXTT16=
EXTT17=
PLAYORDER=
